<svg width="16" height="17" viewBox="0 0 16 17" fill="none" xmlns="http://www.w3.org/2000/svg">
<path d="M4.35583 0.574951C4.54928 0.656522 4.76309 0.707504 4.93617 0.824762C5.27215 1.04908 5.44015 1.39066 5.45542 1.79342C5.48087 2.49187 5.53178 3.18522 5.69977 3.86328C5.76595 4.13859 5.85249 4.41389 5.91867 4.68919C6.02557 5.11234 5.92376 5.48451 5.65904 5.83118C5.22125 6.39708 4.79363 6.97318 4.36601 7.54927C4.34056 7.57986 4.34056 7.65634 4.36092 7.69712C5.24161 9.38462 6.47864 10.7305 8.1382 11.6788C8.28583 11.7655 8.43346 11.8572 8.59128 11.9337C8.632 11.9541 8.71345 11.9541 8.74909 11.9235C9.32433 11.4953 9.89958 11.067 10.4646 10.6286C10.8006 10.3635 11.1722 10.287 11.5795 10.3788C11.9918 10.4705 12.3889 10.6133 12.8064 10.6796C13.3358 10.7611 13.8754 10.807 14.4099 10.8376C15.0361 10.8733 15.4891 11.1996 15.652 11.7757C15.6877 11.9031 15.703 12.0357 15.703 12.1682C15.708 13.0808 15.708 13.9883 15.703 14.9009C15.703 15.686 15.1532 16.2264 14.3743 16.2162C11.4879 16.1856 8.84072 15.3801 6.4481 13.764C4.13184 12.1988 2.41628 10.129 1.29124 7.56967C0.731269 6.30532 0.369831 4.99508 0.21202 3.63386C0.161113 3.23621 0.130569 2.83855 0.0898438 2.44089C0.0898438 2.18598 0.0898438 1.93107 0.0898438 1.67616C0.176385 1.47733 0.242564 1.25811 0.354559 1.07457C0.542914 0.778879 0.853445 0.651424 1.18434 0.574951C2.2432 0.574951 3.30206 0.574951 4.35583 0.574951Z" fill="white"/>
</svg>
