<svg width="11" height="11" viewBox="0 0 11 11" fill="none" xmlns="http://www.w3.org/2000/svg">
<path d="M3.47456 0.950439C3.59862 1.00275 3.73574 1.03545 3.84675 1.11065C4.06222 1.25451 4.16996 1.47358 4.17976 1.73188C4.19608 2.17982 4.22873 2.62449 4.33647 3.05935C4.37891 3.23591 4.43441 3.41247 4.47686 3.58903C4.54542 3.86041 4.48012 4.09909 4.31035 4.32143C4.02958 4.68435 3.75533 5.05382 3.48109 5.42329C3.46476 5.44291 3.46476 5.49195 3.47782 5.51811C4.04264 6.60036 4.83598 7.46354 5.90031 8.07169C5.99499 8.12727 6.08967 8.18613 6.19088 8.23517C6.217 8.24825 6.26924 8.24825 6.29209 8.22863C6.66101 7.95398 7.02994 7.67933 7.39233 7.39815C7.60781 7.22813 7.84614 7.17908 8.10732 7.23793C8.37177 7.29679 8.62643 7.38834 8.89414 7.43084C9.23368 7.48316 9.57975 7.51258 9.92256 7.5322C10.3241 7.55509 10.6147 7.76434 10.7192 8.13381C10.742 8.21555 10.7518 8.30056 10.7518 8.38557C10.7551 8.97084 10.7551 9.55283 10.7518 10.1381C10.7518 10.6416 10.3992 10.9882 9.89971 10.9817C8.04856 10.962 6.35086 10.4454 4.8164 9.40897C3.33091 8.40519 2.23067 7.07772 1.50914 5.43637C1.15001 4.6255 0.918212 3.78521 0.817003 2.91222C0.784355 2.65719 0.764766 2.40215 0.738647 2.14712C0.738647 1.98364 0.738647 1.82016 0.738647 1.65668C0.794149 1.52916 0.836592 1.38857 0.908418 1.27086C1.02922 1.08122 1.22837 0.999484 1.44058 0.950439C2.11966 0.950439 2.79874 0.950439 3.47456 0.950439Z" fill="white"/>
</svg>
