<svg width="43" height="44" viewBox="0 0 43 44" fill="none" xmlns="http://www.w3.org/2000/svg">
<path d="M4.98445 0.112793C15.5673 0.112793 27.4207 0.112793 38.0035 0.112793C37.7694 0.893313 37.0004 2.21153 36.2481 3.51239C31.3997 11.9073 29.3935 16.2435 28.3904 20.0594C27.4876 23.4764 26.986 27.1882 27.4876 30.1888C27.6213 31.0041 28.2399 34.7159 30.2294 35.2882C30.848 35.4617 33.8239 35.5831 34.409 35.1321C35.2282 34.5077 35.8134 32.86 35.9137 32.5304C36.4152 30.8306 36.2481 29.391 36.2481 29.2349C36.2481 29.0788 36.2815 28.489 36.5824 28.3676C38.4215 27.6738 42.1998 28.2983 42.6011 28.7145C43.1026 29.2349 43.1026 30.6225 42.7683 30.7959C42.4339 30.9694 41.2636 30.9694 40.5949 30.9694C40.0599 30.9694 39.3577 30.9347 38.923 31.1428C38.5385 31.3163 38.1372 31.9927 38.4215 32.8773C38.8729 34.2996 40.0933 36.1728 40.4277 36.8666C40.9627 37.9767 41.1131 38.0461 41.0964 38.6011C41.0797 39.3296 40.9794 40.405 39.5249 41.5324C38.8394 42.0528 37.9032 42.8159 36.783 43.8046C26.9358 43.8046 17.0886 43.8046 7.24145 43.8046C5.82037 43.4577 2.81104 41.2029 1.80793 40.1622C0.804822 39.1215 -0.39891 37.6472 0.136082 36.1728C0.370141 35.5311 0.470452 35.3923 2.1423 34.0914C4.81726 32.0101 5.28538 31.5244 5.486 30.7959C5.65319 30.1888 5.65319 30.7265 5.65319 28.888C5.65319 28.5411 5.486 28.1942 4.98445 28.1942C3.36275 28.1942 3.01167 28.2462 1.40669 28.2462C1.35653 28.2462 1.12247 28.1942 1.07232 28.1595C0.503889 27.8473 0.136082 26.876 0.136082 26.1995C0.136082 25.4537 0.570763 24.7772 1.22279 24.4997C3.93118 24.2222 7.19129 24.0488 9.3647 25.0374C9.41485 25.0548 9.58204 25.1588 9.66563 25.2456C9.86625 25.4537 10.1839 25.9567 10.5016 27.0147C10.6687 27.5524 10.5684 29.0961 10.1672 29.6165C9.58204 30.3623 7.79316 33.2762 9.66563 35.5137C12.14 38.4624 18.1921 40.1969 22.5389 38.1155C21.0342 36.5544 19.446 35.7739 16.6874 32.7385C13.979 29.7379 11.4545 25.8353 10.8025 24.7425C9.16407 21.9674 6.8402 16.0354 6.15474 11.5604C5.73678 8.81993 5.20179 4.50105 4.98445 0.112793Z" fill="white"/>
</svg>
