<svg width="43" height="53" viewBox="0 0 43 53" fill="none" xmlns="http://www.w3.org/2000/svg">
<g clip-path="url(#clip0_2:226)">
<path d="M4.98445 0.112793C15.5673 0.112793 27.4207 0.112793 38.0035 0.112793C37.7694 0.893313 37.0004 2.21153 36.2481 3.51239C31.3997 11.9073 29.3935 16.2435 28.3904 20.0594C27.4876 23.4764 26.986 27.1882 27.4876 30.1888C27.6213 31.0041 28.2399 34.7159 30.2294 35.2882C30.848 35.4617 33.8239 35.5831 34.409 35.1321C35.2282 34.5077 35.8134 32.86 35.9137 32.5304C36.4152 30.8306 36.2481 29.391 36.2481 29.2349C36.2481 29.0788 36.2815 28.489 36.5824 28.3676C38.4215 27.6738 42.1998 28.2983 42.6011 28.7145C43.1026 29.2349 43.1026 30.6225 42.7683 30.7959C42.4339 30.9694 41.2636 30.9694 40.5949 30.9694C40.0599 30.9694 39.3577 30.9347 38.923 31.1428C38.5385 31.3163 38.1372 31.9927 38.4215 32.8773C38.8729 34.2996 40.0933 36.1728 40.4277 36.8666C40.9627 37.9767 41.1131 38.0461 41.0964 38.6011C41.0797 39.3296 40.9794 40.405 39.5249 41.5324C38.8394 42.0528 37.9032 42.8159 36.783 43.8046C26.9358 43.8046 17.0886 43.8046 7.24145 43.8046C5.82037 43.4577 2.81104 41.2029 1.80793 40.1622C0.804822 39.1215 -0.39891 37.6472 0.136082 36.1728C0.370141 35.5311 0.470452 35.3923 2.1423 34.0914C4.81726 32.0101 5.28538 31.5244 5.486 30.7959C5.65319 30.1888 5.65319 30.7265 5.65319 28.888C5.65319 28.5411 5.486 28.1942 4.98445 28.1942C3.36275 28.1942 3.01167 28.2462 1.40669 28.2462C1.35653 28.2462 1.12247 28.1942 1.07232 28.1595C0.503889 27.8473 0.136082 26.876 0.136082 26.1995C0.136082 25.4537 0.570763 24.7772 1.22279 24.4997C3.93118 24.2222 7.19129 24.0488 9.3647 25.0374C9.41485 25.0548 9.58204 25.1588 9.66563 25.2456C9.86625 25.4537 10.1839 25.9567 10.5016 27.0147C10.6687 27.5524 10.5684 29.0961 10.1672 29.6165C9.58204 30.3623 7.79316 33.2762 9.66563 35.5137C12.14 38.4624 18.1921 40.1969 22.5389 38.1155C21.0342 36.5544 19.446 35.7739 16.6874 32.7385C13.979 29.7379 11.4545 25.8353 10.8025 24.7426C9.16408 21.9674 6.8402 16.0354 6.15474 11.5604C5.73678 8.81993 5.20179 4.50105 4.98445 0.112793Z" fill="white"/>
<path d="M37.4326 47.5159C37.0481 45.7814 35.5936 45.1743 34.3397 45.1743C34.323 45.1743 34.3063 45.1743 34.2895 45.1743C32.7347 45.1917 31.3304 46.1456 30.996 47.9495L30.9291 48.3311L31.2301 48.1056C31.5979 47.8281 32.1329 47.7761 32.601 47.9668C33.0022 48.123 33.2697 48.4352 33.3199 48.7821C33.37 49.1116 33.2028 49.4412 33.1025 49.5973C32.3502 50.69 30.1601 51.0022 28.9229 51.141C29.8759 50.2217 30.3607 48.7647 30.0932 47.5332C29.7087 45.7987 28.2542 45.1917 27.0003 45.1917C26.9836 45.1917 26.9668 45.1917 26.9501 45.1917C25.3953 45.209 23.6399 46.163 23.3055 47.9668L23.2386 48.3484L23.5395 48.1229C23.9074 47.8454 24.4423 47.7934 24.9105 47.9842C25.3117 48.1403 25.5792 48.4525 25.6294 48.7994C25.6795 49.129 25.5123 49.4585 25.412 49.6146C24.6597 50.69 22.5197 51.0195 21.2658 51.1583C22.2021 50.239 22.7036 48.7821 22.4361 47.5679C22.0516 45.8334 20.5971 45.2264 19.3432 45.2264C19.3265 45.2264 19.3265 45.2264 19.3098 45.2264C19.293 45.2264 19.2763 45.2264 19.2596 45.2264C17.7048 45.2437 15.9493 46.1977 15.615 48.0015L15.5481 48.3831L15.5815 48.3484V48.3831L15.8825 48.1576C16.1165 47.9842 16.384 47.8975 16.685 47.8975C16.8689 47.8975 17.036 47.9495 17.2199 48.0189C17.6212 48.175 17.8887 48.4872 17.9388 48.8341C17.989 49.1636 17.8218 49.4932 17.7215 49.6493C16.9692 50.7247 14.8459 51.0369 13.592 51.193H13.5753C14.5283 50.2737 15.0131 48.8167 14.7456 47.5853C14.3611 45.8508 12.9066 45.2437 11.6527 45.2437C11.636 45.2437 11.6192 45.2437 11.6025 45.2437C10.0477 45.261 8.29227 46.215 7.9579 48.0189L7.89102 48.4005L8.19195 48.175C8.55976 47.8975 9.09475 47.8454 9.56287 48.0362C9.96412 48.1923 10.2316 48.5045 10.2818 48.8514C10.3319 49.181 10.148 49.7013 10.031 49.8574C9.14491 50.9675 7.90774 50.9675 5.95167 51.141C5.65074 51.1757 5.60059 52.2163 5.60059 52.2163H13.7592H21.1822H32.7347C32.7347 52.2163 35.6103 52.1817 36.8475 50.4819C37.3825 49.5799 37.6332 48.4352 37.4326 47.5159Z" fill="white"/>
<path d="M23.539 13.0346C25.9859 13.0346 27.9694 10.9767 27.9694 8.43819C27.9694 5.89967 25.9859 3.8418 23.539 3.8418C21.0922 3.8418 19.1086 5.89967 19.1086 8.43819C19.1086 10.9767 21.0922 13.0346 23.539 13.0346Z" fill="#292F3D"/>
</g>
<defs>
<clipPath id="clip0_2:226">
<rect width="43" height="52" fill="white" transform="translate(0 0.112793)"/>
</clipPath>
</defs>
</svg>
