<svg width="19" height="19" viewBox="0 0 19 19" fill="none" xmlns="http://www.w3.org/2000/svg">
<path d="M9.2392 3.74816L3.55336 8.53723C3.43029 8.63547 3.35645 8.78283 3.35645 8.95474V13.007V16.077V17.4032C3.35645 17.8698 3.72566 18.2382 4.19332 18.2382H7.09778C7.56545 18.2382 7.93466 17.8698 7.93466 17.4032V17.0348V13.179C7.93466 12.7123 8.30387 12.3439 8.77153 12.3439H10.8145C11.2822 12.3439 11.6514 12.7123 11.6514 13.179V17.0348V17.4032C11.6514 17.8698 12.0206 18.2382 12.4883 18.2382H15.3927C15.8604 18.2382 16.2296 17.8698 16.2296 17.4032V16.077V12.9825V8.95474C16.2296 8.80739 16.1557 8.66003 16.0327 8.53723L10.2484 3.74816C9.95301 3.50257 9.53457 3.50257 9.2392 3.74816Z" fill="white"/>
<path d="M18.4939 7.23493L10.4944 0.530225C10.0267 0.210954 9.43595 0.210954 9.01751 0.530225L1.01794 7.23493C0.69796 7.50508 0.673346 7.97171 0.919487 8.26642C1.06717 8.43834 1.26408 8.53658 1.48561 8.53658C1.65791 8.53658 1.83021 8.48746 1.95328 8.36466L9.23904 2.24938C9.5344 2.00379 9.95284 2.00379 10.2482 2.24938L17.534 8.36466C17.6817 8.48746 17.8293 8.53658 18.0016 8.53658C18.2232 8.53658 18.4201 8.43834 18.5678 8.26642C18.8385 7.97171 18.8139 7.50508 18.4939 7.23493Z" fill="white"/>
<path d="M15.9394 3.8449V1.0697C15.9394 0.725865 15.6441 0.431152 15.2996 0.431152H14.4631C14.1186 0.431152 13.8234 0.725865 13.8234 1.0697V2.07663L15.9394 3.8449Z" fill="white"/>
</svg>
