<svg width="7" height="14" viewBox="0 0 7 14" fill="none" xmlns="http://www.w3.org/2000/svg">
<path d="M2.45244 1.43352L2.45198 1.43344C1.94748 1.34802 1.44213 1.28871 0.922835 1.22777C0.838258 1.21784 0.753311 1.20787 0.667938 1.19774V1.20626V1.22753V1.24879V1.27005V1.29132V1.31258V1.33384V1.3551V1.37637V1.39763V1.41889V1.44016V1.46142V1.48268V1.50395V1.52521V1.54647V1.56774V1.589V1.61027V1.63153V1.65279V1.67406V1.69532V1.71658V1.73785V1.75911V1.78037V1.80164V1.8229V1.84417V1.86543V1.88669V1.90796V1.92922V1.95049V1.97175V1.99302V2.01428V2.03554V2.05681V2.07807V2.09934V2.1206V2.14187V2.16313V2.1844V2.20566V2.22693V2.24819V2.26946V2.29072V2.31199V2.33325V2.35452V2.37578V2.39705V2.41831V2.43958V2.46084V2.48211V2.50337V2.52464V2.54591V2.56717V2.58844V2.6097V2.63097V2.65224V2.6735V2.69477V2.71603V2.7373V2.75857V2.77983V2.8011V2.82237V2.84363V2.8649V2.88617V2.90744V2.9287V2.94997V2.97124V2.9925V3.01377V3.03504V3.05631V3.07757V3.09884V3.12011V3.14138V3.16265V3.18391V3.20518V3.22645V3.24772V3.26899V3.29026V3.31153V3.33279V3.35406V3.37533V3.3966V3.41787V3.43914V3.46041V3.48168V3.50295V3.52422V3.54549V3.56676V3.58803V3.6093V3.63057V3.65184V3.67311V3.69438V3.71565V3.73692V3.75819V3.77946V3.80073V3.822V3.84328V3.86455V3.88582V3.90709V3.92836V3.94963V3.97091V3.99218V4.01345V4.03472V4.056V4.07727V4.09854V4.11981V4.14109V4.16236V4.18363V4.20491V4.22618V4.24745V4.26873V4.29V4.31128V4.33255V4.35382V4.3751V4.39637V4.41765V4.43892V4.4602V4.48147V4.50275V4.52402V4.5453V4.56657V4.58785V4.60913V4.6304V4.65168V4.67296V4.69423V4.71551V4.73678V4.75806V4.77934V4.80062V4.82189V4.84317V4.86445V4.88573V4.907V4.92828V4.94956V4.97084V4.99212V5.0134V5.03468V5.05595V5.07723V5.09851V5.11979V5.14107V5.16235V5.18363V5.20491V5.22619V5.24747V5.26875V5.29004V5.31132V5.3326V5.35388V5.37516V5.39644V5.41772V5.43901V5.46029V5.48157V5.50285V5.52414V5.54542V5.5667V5.58799V5.60927V5.63055V5.65184V5.67312V5.6944V5.71569V5.73697V5.75826V5.77954V5.80083V5.82211V5.8434V5.86468V5.88597V5.90726V5.92854V5.94983V5.97111V5.9924V6.01369V6.03498V6.05626V6.07755V6.09884V6.12013V6.14141V6.1627V6.18399V6.20528V6.22657V6.24786V6.26915V6.29044V6.31173V6.33302V6.35431V6.3756V6.39689V6.41818V6.43947V6.46076V6.48205V6.50334V6.52463V6.54593V6.56722V6.58851V6.6098V6.6311V6.65239V6.67368V6.69498V6.71627V6.73756V6.75886V6.78015V6.80145V6.82274V6.84404V6.86533V6.88663V6.90792V6.92922V6.95052V6.97181V6.99311V7.01441V7.0357V7.057V7.0783V7.09959V7.12089V7.14219V7.16349V7.18479V7.20609V7.22739V7.24869V7.26999V7.29129V7.31258V7.33389V7.35519V7.37649V7.39779V7.41909V7.44039V7.46169V7.48299V7.5043V7.5256V7.5469V7.5682V7.58951V7.61081V7.63212V7.65342V7.67472V7.69603V7.71733V7.73864V7.75994V7.78125V7.80255V7.82386V7.84517V7.86647V7.88778V7.90909V7.93039V7.9517V7.97301V7.99432V8.01563V8.03694V8.05824V8.07955V8.10086V8.12217V8.14348V8.16479V8.1861V8.20741V8.22872V8.25004V8.27135V8.29266V8.31397V8.33528V8.3566V8.37791V8.39922V8.42054V8.44185V8.46316V8.48448V8.50579V8.52711V8.54842V8.56974V8.59105V8.61237V8.63369V8.655V8.67632V8.69764V8.71896V8.74027V8.76159V8.78291V8.80423V8.82555V8.84687V8.86819V8.88951V8.91083V8.93215V8.95347V8.97479V8.99611V9.01743V9.03875V9.06008V9.0814V9.10272V9.12404V9.14537V9.16669V9.18801V9.20934V9.23066V9.25199V9.27331V9.29464V9.31597V9.33729V9.35862V9.37995V9.40127V9.4226V9.44393V9.46526V9.48658V9.50791V9.52924V9.55057V9.5719V9.59323V9.61456V9.63589V9.65722V9.67855V9.69989V9.72122V9.74255V9.76388V9.78522V9.80655V9.82788V9.84922V9.87055V9.89188V9.91322V9.93456V9.95589V9.97723V9.99856V10.0199V10.0412V10.0626V10.0839V10.1052V10.1266V10.1479V10.1693V10.1906V10.2119V10.2333V10.2546V10.276V10.2973V10.3186V10.34V10.3613V10.3827V10.404V10.4254V10.4467V10.468V10.4894V10.5107V10.5321V10.5534V10.5748V10.5961V10.6175V10.6388V10.6602V10.6815V10.7029V10.7242V10.7455V10.7669V10.7882V10.8096V10.8309V10.8523V10.8736V10.895V10.9163V10.9377V10.9591V10.9804V11.0018V11.0231V11.0445V11.0658V11.0872V11.0899C2.50879 11.2376 4.2833 11.6437 6.0042 12.2975C6.00421 9.03222 6.00438 5.76654 6.00764 2.4979C4.84087 2.03032 3.67058 1.63859 2.45244 1.43352ZM6.15877 2.55959C6.15887 2.55957 6.15744 2.55877 6.1542 2.55727C6.15704 2.55886 6.15867 2.55961 6.15877 2.55959Z" stroke="#FDE502"/>
</svg>
